<?xml version="1.0" encoding="UTF-8" standalone="no"?>
<!DOCTYPE svg PUBLIC "-//W3C//DTD SVG 1.1//EN" "http://www.w3.org/Graphics/SVG/1.1/DTD/svg11.dtd">
<svg width="100%" height="100%" viewBox="0 0 1600 1956" version="1.1" xmlns="http://www.w3.org/2000/svg" xmlns:xlink="http://www.w3.org/1999/xlink" xml:space="preserve" xmlns:serif="http://www.serif.com/" style="fill-rule:evenodd;clip-rule:evenodd;stroke-linejoin:round;stroke-miterlimit:2;">
    <g transform="matrix(5.55556,0,0,5.55556,0,0)">
        <path d="M288,56C288,135.529 223.529,200 144,200C64.471,200 0,135.529 0,56C0,25.072 25.072,0 56,0C86.928,0 112,25.072 112,56L112,163.362C132.752,169.538 155.248,169.538 176,163.362L176,56C176,25.072 201.072,0 232,0C262.928,0 288,25.072 288,56ZM56,32C69.255,32 80,42.745 80,56L80,147.925C50.984,127.686 32,94.06 32,56C32,42.745 42.745,32 56,32ZM208,56L208,147.925C237.016,127.686 256,94.06 256,56C256,42.745 245.255,32 232,32C218.745,32 208,42.745 208,56Z" style="fill:rgb(122,122,184);"/>
        <path d="M208,296L208,220.002C167.21,235.934 120.757,235.922 80,220.002L80,296C80,309.255 69.255,320 56,320C42.745,320 32,309.255 32,296L32,191.771C19.858,181.743 9.084,170.119 0,157.219L0,296C0,326.928 25.072,352 56,352C86.928,352 112,326.928 112,296L112,261.554C133.162,264.821 154.838,264.821 176,261.554L176,296C176,326.928 201.072,352 232,352C262.928,352 288,326.928 288,296L288,157.219C278.916,170.119 268.142,181.743 256,191.771L256,296C256,309.255 245.255,320 232,320C218.745,320 208,309.255 208,296Z" style="fill:rgb(122,122,184);fill-rule:nonzero;"/>
    </g>
</svg>
